<?xml version="1.0" encoding="UTF-8"?>
<svg width="161px" height="161px" viewBox="0 0 161 161" version="1.1" xmlns="http://www.w3.org/2000/svg" xmlns:xlink="http://www.w3.org/1999/xlink">
    <!-- Generator: Sketch 57.1 (83088) - https://sketch.com -->
    <title>black-hand</title>
    <desc>Created with Sketch.</desc>
    <defs>
        <circle id="path-1" cx="80.5" cy="80.5" r="80.5"></circle>
        <path d="M25.0387904,87.9235298 C12.1577328,82.9758927 11.6956117,72.1336107 9.04072648,58.3928691 C7.67167726,49.5581753 5.75964212,43.6059736 3.30462107,40.5362639 C-0.141719874,36.690013 -0.892456923,33.6198641 1.05240992,31.3258173 C6.30559277,26.3967789 11.5683287,29.656012 13.8890582,32.1925084 C16.2930326,34.8169273 19.1191544,39.2876249 22.3674238,45.6046014 L22.3674238,7.47982642 C22.3674238,3.34883236 25.7162561,0 29.8472502,0 C33.9782443,0 37.3270766,3.34883236 37.3270766,7.47982642 L37.3270766,23.4075628 C37.3270766,19.3923569 40.5820441,16.1373895 44.5972499,16.1373895 C48.6124558,16.1373895 51.8674232,19.3923569 51.8674232,23.4075628 L51.8674232,31.7163323 C51.8674232,27.7011264 55.1223907,24.446159 59.1375966,24.446159 C63.1528024,24.446159 66.4077699,27.7011264 66.4077699,31.7163323 L66.4077699,41.5829961 C66.4077699,37.5677902 69.6627373,34.3128227 73.6779432,34.3128227 C77.693149,34.3128227 80.9481165,37.5677902 80.9481165,41.5829961 L80.9481165,71.1341656 C80.9481165,76.3278643 80.1432325,80.1740482 78.5334645,82.6727174 C77.209323,84.7280394 75.7621466,86.2625328 74.1919354,87.2761974 L74.1919354,118.02847 L25.0387904,118.02847 L25.0387904,87.9235298 Z" id="path-3"></path>
    </defs>
    <g id="Page-1" stroke="none" stroke-width="1" fill="none" fill-rule="evenodd">
        <g id="hand" transform="translate(-60.000000, -60.000000)">
            <g id="black-hand" transform="translate(60.000000, 60.000000)">
                <g id="Group-11">
                    <mask id="mask-2" fill="white">
                        <use xlink:href="#path-1"></use>
                    </mask>
                    <use id="Mask" fill="#FBD292" opacity="0.2" xlink:href="#path-1"></use>
                    <g mask="url(#mask-2)">
                        <g transform="translate(37.316936, 27.501779)">
                            <g id="Path" stroke="none" stroke-width="1" fill-rule="evenodd" transform="translate(0.000000, 15.726850)">
                                <mask id="mask-4" fill="white">
                                    <use xlink:href="#path-3"></use>
                                </mask>
                                <use id="Mask" fill="#C5925C" xlink:href="#path-3"></use>
                                <path d="M19.1617839,87.9235298 C6.28072635,82.9758927 5.81860522,72.1336107 3.16372001,58.3928691 C1.79467079,49.5581753 -0.117364351,43.6059736 -2.5723854,40.5362639 C-6.01872635,36.690013 -3.34431216,35.7200313 -1.39944532,33.4259845 C3.85373753,28.4969461 7.88544519,30.8894881 10.2061747,33.4259845 C12.6101491,36.0504033 18.0023105,44.4027783 22.3674238,56.448774 C22.4200699,51.7977054 22.4200699,48.1829812 22.3674238,45.6046014 C22.0500182,43.3378979 21.6510177,40.6042996 21.1704223,37.4038064 C20.4249236,32.4392074 20.4249236,22.2845735 21.1704223,6.93990485 C21.1704223,2.80891079 21.6354366,-1.89087551 26.2743664,-3.65652403 C30.9132963,-5.42217255 38.7202435,0.971691098 38.7202435,5.10268516 C39.0247484,8.60484355 39.0247484,12.2830783 38.7202435,16.1373895 C43.0228465,13.4473855 47.3794526,12.7004164 52.0942164,16.1373895 C52.8717988,18.1249408 53.2605901,20.8945306 53.2605901,24.446159 C53.7386618,20.598012 61.2437976,20.5014495 64.5345302,23.4075628 C66.413315,25.0667561 67.891581,30.3362375 67.8009367,34.3128227 C71.8161426,34.3128227 75.07111,37.5677902 75.07111,41.5829961 L75.07111,71.1341656 C75.07111,76.3278643 74.266226,80.1740482 72.6564581,82.6727174 C71.3323165,84.7280394 69.8851402,86.2625328 68.3149289,87.2761974 L68.3149289,118.344324 L19.1617839,118.344324 L19.1617839,87.9235298 Z" fill="#F3BE85" mask="url(#mask-4)"></path>
                            </g>
                            <path d="M29.7662579,0 L29.7662579,7.68283858" id="Path-33" stroke="#C5925C" stroke-width="2.29181495" stroke-linecap="round"></path>
                            <path d="M41.870581,4.40561334 L41.870581,12.0884519" id="Path-33" stroke="#C5925C" stroke-width="2.29181495" stroke-linecap="round" transform="translate(41.870581, 8.247033) rotate(40.000000) translate(-41.870581, -8.247033) "></path>
                            <path d="M48.3111569,15.5610179 L48.3111569,23.2438565" id="Path-33" stroke="#C5925C" stroke-width="2.29181495" stroke-linecap="round" transform="translate(48.311157, 19.402437) rotate(80.000000) translate(-48.311157, -19.402437) "></path>
                            <path d="M11.2213589,15.5610179 L11.2213589,23.2438565" id="Path-33" stroke="#C5925C" stroke-width="2.29181495" stroke-linecap="round" transform="translate(11.221359, 19.402437) rotate(280.000000) translate(-11.221359, -19.402437) "></path>
                            <path d="M17.6619347,4.40561334 L17.6619347,12.0884519" id="Path-33" stroke="#C5925C" stroke-width="2.29181495" stroke-linecap="round" transform="translate(17.661935, 8.247033) rotate(320.000000) translate(-17.661935, -8.247033) "></path>
                        </g>
                    </g>
                </g>
                <path d="M51.8767711,109.579394 C52.1409882,110.604539 52.4132201,111.569529 52.6934668,112.474363 M53.7774895,115.574271 C54.6526539,117.775394 55.5959325,119.465278 56.6073251,120.643923 C59.2945597,123.775543 62.8445512,125.673001 67.2572995,126.336299 L67.2572995,152.201339" id="Shape" stroke="#FEF6E9" stroke-width="1.14590747" stroke-linecap="round"></path>
                <path d="M67.2572995,46.2616696 C64.7209476,46.2616696 62.664828,48.3177891 62.664828,50.8541411" id="Shape" stroke="#FEF6E9" stroke-width="1.14590747" stroke-linecap="round"></path>
            </g>
        </g>
    </g>
</svg>