<?xml version="1.0" encoding="UTF-8"?>
<svg width="161px" height="162px" viewBox="0 0 161 162" version="1.1" xmlns="http://www.w3.org/2000/svg" xmlns:xlink="http://www.w3.org/1999/xlink">
    <!-- Generator: Sketch 57.1 (83088) - https://sketch.com -->
    <title>Group</title>
    <desc>Created with Sketch.</desc>
    <defs>
        <circle id="path-1" cx="45.8461101" cy="46.0355643" r="45.28125"></circle>
    </defs>
    <g id="Page-1" stroke="none" stroke-width="1" fill="none" fill-rule="evenodd">
        <g id="dollar" transform="translate(-60.000000, -60.000000)">
            <g id="Group" transform="translate(60.000000, 60.250371)">
                <g id="naira">
                    <circle id="Oval-Copy-2" fill="#2ecc71" opacity="0.100000001" cx="80.5" cy="80.5" r="80.5"></circle>
                    <circle id="Oval-Copy-3" fill="#2ecc71" cx="80.5" cy="80.5" r="45.28125"></circle>
                    <g id="Oval-Copy-4" transform="translate(34.653890, 34.212500)">
                        <mask id="mask-2" fill="white">
                            <use xlink:href="#path-1"></use>
                        </mask>
                        <use id="Mask" fill="#209c55" xlink:href="#path-1"></use>
                        <circle id="Oval-Copy" fill="#2ecc71" mask="url(#mask-2)" cx="36.42625" cy="46.2875" r="44.275"></circle>
                    </g>
                    <path d="M80.5,43.26875 C77.8474079,43.26875 75.2596064,43.5461517 72.764023,44.0735276 C72.2508435,44.1819746 71.7415636,44.300992 71.2364217,44.4303412 M63.1887415,47.5295899 C54.5862237,52.0557006 47.9713408,59.8499341 44.9950402,69.2613429" id="Shape-Copy" stroke="#69F240" stroke-width="2.0125" stroke-linecap="round"></path>
                </g>
                <text id="$" font-family="CoreSansDS55Bold, Core Sans DS" font-size="52.325" font-weight="bold" fill="#2ecc71">
                    <tspan x="68.928125" y="101.569939">$</tspan>
                </text>
                <path d="M67.4147254,90.807088 C67.4147254,88.9233877 68.9321507,87.4059625 70.815851,87.4059625 C72.1763012,87.4059625 73.1181513,88.0338626 73.9030265,89.2373378 C74.9495266,90.859413 76.3099769,91.9844007 77.9843771,92.5861383 L77.9843771,82.5920617 C71.286776,81.362424 67.8856505,77.7781609 67.8856505,71.9700849 C67.8856505,66.8422341 71.4175886,62.1591458 77.9843771,61.4004332 L77.9843771,59.4644079 C77.9843771,58.0516326 79.0832023,56.9004825 80.4959776,56.9004825 C81.9087528,56.9004825 83.059903,58.0516326 83.059903,59.4644079 L83.059903,61.6097332 C86.5133535,62.2637958 89.4697165,63.9905211 91.3795793,66.371309 C91.9028294,67.0253716 92.2691045,67.9148968 92.2691045,68.7782594 C92.2691045,70.6619597 90.7516792,72.179385 88.8679789,72.179385 C87.7168287,72.179385 86.6703286,71.6038099 85.9377784,70.6096347 C85.1005783,69.484647 84.1325657,68.6736094 83.059903,68.1241968 L83.059903,77.3857233 C90.5162167,78.6938485 93.6818797,82.4612492 93.6818797,88.0861876 C93.6818797,93.972751 89.6790166,98.3418893 83.059903,99.0744394 L83.059903,101.010465 C83.059903,102.42324 81.9087528,103.57439 80.4959776,103.57439 C79.0832023,103.57439 77.9843771,102.42324 77.9843771,101.010465 L77.9843771,98.9174643 C73.6152389,98.2110767 69.9786508,95.9872639 67.9903005,92.7954383 C67.6763505,92.2983508 67.4147254,91.5396381 67.4147254,90.807088 Z M86.8796286,88.2954876 C86.8796286,86.1239998 85.6499909,84.475762 83.059903,83.6123993 L83.059903,92.8739259 C85.5191784,92.2460258 86.8796286,90.440813 86.8796286,88.2954876 Z M74.6879016,71.9177599 C74.6879016,74.0107603 75.7082393,75.502023 77.9843771,76.3392231 L77.9843771,67.6009467 C75.8128893,68.2026843 74.6879016,69.9294096 74.6879016,71.9177599 Z" id="$" fill="#FFFFFF" fill-rule="nonzero"></path>
            </g>
        </g>
    </g>
</svg>